# xmcd
#
# Track frame offsets: 
#        150
#        18331
#        37432
#        56132
#        77349
#        102639
#        119552
#        141471
#        159845
#        182302
#        204647
#        227058
#        247288
#        268871
#        290299
#        310297
#
# Disc length: 4392 seconds
#
# Revision: 0
# Processed by: cddbd v1.5.2PL0 Copyright (c) Steve Scherf et al.
# Submitted via: ExactAudioCopy v0.99pb4
#
DISCID=ef112610
DTITLE=Skool Boyz - Skool Boyz | This Is The Real Thing
DYEAR=2010
DGENRE=R&B
TTITLE0=Breakin' Out
TTITLE1=Before You Go
TTITLE2=Slip Away
TTITLE3=Nothin' Like A Slow Dance
TTITLE4=Heartbreaker
TTITLE5=I Don't Want Nobody Else (One Woman Man)
TTITLE6=Nothin' Like A Slow Dance (Instrumental)
TTITLE7=You Are The Best Thing In My Life
TTITLE8=Super Fine (From Behind)
TTITLE9=This Is The Real Thing
TTITLE10=Can We Do It Again
TTITLE11=Give Me that Lovin'
TTITLE12=She's Still My Girl
TTITLE13=Never Need Another Love
TTITLE14=You Are My Love
TTITLE15=Feel Like I'm In Love
EXTD=
EXTT0=
EXTT1=
EXTT2=
EXTT3=
EXTT4=
EXTT5=
EXTT6=
EXTT7=
EXTT8=
EXTT9=
EXTT10=
EXTT11=
EXTT12=
EXTT13=
EXTT14=
EXTT15=
PLAYORDER=
